<svg xmlns="mp" viewBox="0 0 40.7 40.64"><path d="M5.6,38.71a45.07,45.07,0,0,0,12.83,1.87c6.34,0,14-1.41,20.64-6.66a3.5,3.5,0,0,0,1.51-2.25,1.88,1.88,0,0,0-.77-1.58,1.73,1.73,0,0,0-1.72-.23,1.6,1.6,0,0,0,.07-.42,1.92,1.92,0,0,0-.84-1.54c-.64-.49-1.57-.28-2.93.27V24h1.17a.61.61,0,0,0,.62-.62V18.46s0,0,0,0a.9.9,0,0,0,0-.16s0,0,0-.06A.64.64,0,0,0,36,18v0l-5.65-5.53a.78.78,0,0,0-.33-.16V9.22h.54a.62.62,0,0,0,.63-.6V4.77s0,0,0,0a1,1,0,0,0,0-.18v0a.59.59,0,0,0-.1-.17L27.37.18A.63.63,0,0,0,26.91,0H15.83a.64.64,0,0,0-.47.22L11.7,4.37a1,1,0,0,0-.1.17v0a.52.52,0,0,0,0,.18s0,0,0,0V8.62a.62.62,0,0,0,.62.6h.54v3.11a.69.69,0,0,0-.32.16L6.73,18v0a.44.44,0,0,0-.1.16s0,0,0,.06a.94.94,0,0,0,0,.16s0,0,0,0V23.4a.62.62,0,0,0,.62.62H8.34v2.4c-.8,0-1.68,0-2.64,0H.51A.61.61,0,0,0-.1,27V38.09a.61.61,0,0,0,.61.62Zm31-9.84c.31.24.34.44.34.55a1.9,1.9,0,0,1-.68,1.11c-.13.06-.27.11-.42.19l-1.43.6V29.51A5.33,5.33,0,0,1,36.58,28.87ZM16.1,1.21H26.63l2.58,3H13.52ZM12.78,5.4H30V8H12.78Zm16,3.82V14.1H13.94V9.22ZM12.71,13.88v.85a.62.62,0,0,0,.62.62H29.4a.62.62,0,0,0,.62-.62v-.85l4,4H8.68ZM7.79,22.79V19.08H35v3.71Zm20,7.27a3,3,0,0,0-2.09-.81c-5.67.11-6.63-.46-7.73-1.1s-2.5-1.48-8.42-1.7V24H33.15V31.8a46.13,46.13,0,0,1-4.64,1.44,2.14,2.14,0,0,0,.12-.58A3.24,3.24,0,0,0,27.82,30.06ZM6.31,27.62c8.42,0,9.82.86,11.06,1.6s2.37,1.39,8.41,1.28a1.65,1.65,0,0,1,1.17.44,2.05,2.05,0,0,1,.45,1.64c0,.19,0,.73-1.13,1.17h0c-1.15.46-3.7.85-9.26.13a.6.6,0,0,0-.68.53.63.63,0,0,0,.53.7,48.31,48.31,0,0,0,5.5.4,12.29,12.29,0,0,0,4.3-.58,45.82,45.82,0,0,0,9.68-3.08c1.26-.53,2.45-1,2.72-.82a.7.7,0,0,1,.33.58c0,.52-.73,1.12-1,1.32-12.61,10-29.21,5.56-32,4.7Zm-5.17,0h4v9.85H1.14Z" fill="#1b181c"/><path d="M2.39,29.64a.72.72,0,0,0,1.44,0,.72.72,0,0,0-1.44,0Z" fill="#1b181c"/></svg>